inDegrees=no
num_controls=7
num_derivatives=13
num_iterations=134
num_multipliers=7
num_parameters=0
num_slacks=7
num_states=26
objective=0.516801
objective_accelerations=0.039375
objective_balance=0.002163
objective_effort=0.043551
objective_height=0.420066
objective_ligament=0.011645
solver_duration=1773.733443
status=Solve_Succeeded
success=true
DataType=double
version=3
OpenSimVersion=4.5
endheader
time	/jointset/ground_pelvis/pelvis_tilt/value	/jointset/ground_pelvis/pelvis_tx/value	/jointset/ground_pelvis/pelvis_ty/value	/jointset/hip_l/hip_flexion_l/value	/jointset/hip_l/hip_adduction_l/value	/jointset/hip_l/hip_rotation_l/value	/jointset/back/lumbar_extension/value	/jointset/patellofemoral_l/patellar_flexion_l/value	/jointset/knee_l/knee_flexion_l/value	/jointset/knee_l/knee_adduction_l/value	/jointset/knee_l/knee_rotation_l/value	/jointset/ankle_l/ankle_angle_l/value	/jointset/subtalar_l/subtalar_angle_l/value	/jointset/ground_pelvis/pelvis_tilt/speed	/jointset/ground_pelvis/pelvis_tx/speed	/jointset/ground_pelvis/pelvis_ty/speed	/jointset/hip_l/hip_flexion_l/speed	/jointset/hip_l/hip_adduction_l/speed	/jointset/hip_l/hip_rotation_l/speed	/jointset/back/lumbar_extension/speed	/jointset/patellofemoral_l/patellar_flexion_l/speed	/jointset/knee_l/knee_flexion_l/speed	/jointset/knee_l/knee_adduction_l/speed	/jointset/knee_l/knee_rotation_l/speed	/jointset/ankle_l/ankle_angle_l/speed	/jointset/subtalar_l/subtalar_angle_l/speed	/forceset/tau_hip_flexion_l	/forceset/tau_hip_adduction_l	/forceset/tau_hip_rotation_l	/forceset/tau_knee_flexion_l	/forceset/tau_ankle_angle_l	/forceset/tau_subtalar_angle_l	/forceset/tau_lumbar_extension	lambda_cid13_p0	lambda_cid13_p1	lambda_cid13_p2	lambda_cid13_p3	lambda_cid13_p4	lambda_cid13_p5	lambda_cid14_p0	/jointset/ground_pelvis/pelvis_tilt/accel	/jointset/ground_pelvis/pelvis_tx/accel	/jointset/ground_pelvis/pelvis_ty/accel	/jointset/hip_l/hip_flexion_l/accel	/jointset/hip_l/hip_adduction_l/accel	/jointset/hip_l/hip_rotation_l/accel	/jointset/back/lumbar_extension/accel	/jointset/patellofemoral_l/patellar_flexion_l/accel	/jointset/knee_l/knee_flexion_l/accel	/jointset/knee_l/knee_adduction_l/accel	/jointset/knee_l/knee_rotation_l/accel	/jointset/ankle_l/ankle_angle_l/accel	/jointset/subtalar_l/subtalar_angle_l/accel	gamma_cid13_p0	gamma_cid13_p1	gamma_cid13_p2	gamma_cid13_p3	gamma_cid13_p4	gamma_cid13_p5	gamma_cid14_p0
1	-0.1594872226861636	-0.08824121589129715	0.7284403748023501	1.250856412903825	-0.328142190636347	-0.003581435555183194	-0.9599301608303326	1.160357216245042	1.160357216244682	-0.08024135259681768	-0.1745162714465007	0.1477361994831586	0.01348012703340699	0.1101108819228449	0.02631045290075128	0.06639399983379385	-0.2939818107528868	0.0004335710144322849	-0.06284257246922681	-0.001604350256557841	-0.1612648387008058	-0.1612648387007201	0.001182160043673935	-2.784901143874764e-05	0.01456372604736921	0.006799215489272144	-0.3981877188331329	0.0166093008996869	-0.005026094623976539	-0.291362982057366	0.09707638020505231	0.04433703770894502	0.4348518071936666	-18.76179818594542	-16.08864341959528	2.245587157045546	5.293239681453196	-785.4484030874586	-71.66033607778591	-1.795204230198302	1.03614400432583	0.1804604720935516	1.240029187935545	-4.612169934834655	-0.01349039291833931	-1.396089959434724	0.284822473472708	-4.110353682408471	-4.110353682408429	-0.2095405262065922	-0.008056580135629345	-0.8048074881899259	-0.288235171647989	-8.591787299037276e-09	-9.562335947686426e-09	3.583732860443567e-08	2.726034090124167e-09	-2.107225976480961e-08	5.082682280679115e-08	-1.04113880976457e-08
1.01	-0.1583348021679602	-0.08796901674959991	0.7291661047401603	1.247686928366525	-0.3281379165408319	-0.004279819210539142	-0.9599308933437879	1.158539446596811	1.158539446594919	-0.08023885221644209	-0.1745162929438198	0.1478417699295557	0.01353448084181369	0.1203692045204611	0.02813878591602931	0.0787420084830265	-0.3399010946972701	0.000427592499827545	-0.0768279293441952	0.001510215338544759	-0.2022806088040292	-0.2022806088041162	-0.0006827014396439287	2.262835829218972e-05	0.006550237206706195	0.004078585384176072	-0.3977530450143616	0.01680058419266522	-0.005059962793355261	-0.2909780947185659	0.0967757964483679	0.04447627493953998	0.4348776353984799	-18.83615514359462	-16.14880653762559	2.269698670911336	5.156586273921595	-785.3077547201959	-71.75307325464139	-1.833392847843607	1.020072375796147	0.1854330062006846	1.230684333084561	-4.579709435101669	0.00679893417533657	-1.398836684883773	0.3326287731227849	-4.09591358694422	-4.095913586970151	-0.1750591738723569	0.01147326625331671	-0.7996397091764536	-0.2629238377857616	-1.422514793875092e-08	-1.749023334756004e-08	4.863781510132896e-08	8.533313173744166e-09	-2.735425200578955e-08	5.712481188788406e-08	-1.379643217243079e-08
1.02	-0.1570799192261214	-0.08767825161975883	0.7300150142903965	1.244058670627608	-0.3281335121274814	-0.005117872061311316	-0.9598989091674918	1.156311774265014	1.15631177426159	-0.08025502049379134	-0.1745158349933218	0.1478672014621122	0.01356183896760029	0.1306033666507547	0.03002365052951823	0.09102992231896583	-0.3857364510761132	0.0004596345814953444	-0.09077641155339886	0.004938987757402517	-0.2432453754138508	-0.2432453754141112	-0.002551571502080897	6.804055705722937e-05	-0.001464056720835888	0.001400078965266019	-0.3973183711955809	0.01699186748565296	-0.005093830962718417	-0.2905932073797647	0.09647521269168485	0.0446155121701463	0.4349034636033001	-18.92131534031679	-16.20669189379436	2.293005946847265	5.057215052727448	-785.3124367956896	-71.8372519741003	-1.880731436135374	1.031311910861312	0.1917667917357141	1.228010225276882	-4.595384421726598	-0.005886273663820908	-1.388715026281763	0.347663838223689	-4.100152983728114	-4.100152983728226	-0.2103422420304084	-0.009069614328788674	-0.8049685055657576	-0.27981043441078	-1.910474040704649e-08	-2.660555637017871e-08	6.034702829177793e-08	1.241508042594732e-08	-3.275942575967816e-08	6.242338563662782e-08	-1.696532648540704e-08
1.03	-0.155723233685742	-0.08736816976257288	0.7309864780274281	1.239972730140019	-0.3281285856477537	-0.006095159991327639	-0.9598294709713895	1.153674739036133	1.153674739035692	-0.08028995034701537	-0.1745149301519976	0.1478126940998236	0.01356271366576987	0.1406884132813001	0.03202097317288129	0.1032506102871379	-0.4314140997877211	0.0005319921605914052	-0.104672561862048	0.009160414838631625	-0.2841508630120329	-0.2841508630120128	-0.004438867208554546	0.0001103459138674843	-0.00941676738511066	-0.001210334839067692	-0.3980135625893485	0.01735074560547169	-0.005136719450078922	-0.289816784861878	0.09618809237475126	0.04485754021595392	0.4363098142640753	-19.02736503201182	-16.3129171964682	2.33242164763618	4.606330273000543	-786.0203998101614	-71.9372631115575	-1.937523168461657	0.9903000440108896	0.2079561192541978	1.217258198707762	-4.548325900023326	0.01474423004213427	-1.388791975644035	0.4911466485012748	-4.084121499688965	-4.084121499646814	-0.178605197483228	0.01051010883857982	-0.7873276962901489	-0.2494386835967885	-2.397664136338882e-08	-3.573299598078459e-08	7.204510604032439e-08	1.627719959823804e-08	-3.815565238614749e-08	6.771176126973535e-08	-2.013201518856892e-08
1.04	-0.1542670578780896	-0.08703726645522987	0.732079780667366	1.235431139004479	-0.3281227461009667	-0.007211154812925232	-0.9597114656033569	1.150628973960905	1.150628973963455	-0.08034388954980715	-0.1745136763574927	0.1476792785610061	0.01353792785986562	0.1505014201062461	0.03418794056092864	0.1153977029001318	-0.4768665806651479	0.0006422479935183616	-0.1185177898701995	0.01465242213701753	-0.3249913446832436	-0.3249913446829427	-0.006353441416124076	0.0001378311967825372	-0.01724569202665816	-0.003732021849486819	-0.3987087539831292	0.01770962372529396	-0.005179607937433993	-0.2890403623439915	0.09590097205782117	0.04509956826176702	0.4377161649248374	-19.14438277959133	-16.41691074071403	2.371125963014762	4.191077072057506	-786.8773900424444	-72.02941363349973	-2.004107663032402	0.976903949741465	0.2256957406725675	1.213291154241259	-4.550350854890394	0.001693377102339531	-1.378530566182238	0.6017798816548982	-4.087151798333824	-4.087151798333891	-0.2157979422495902	-0.01203362910787122	-0.7802113010203099	-0.2620650756278873	-2.635615576570215e-08	-4.440814822160274e-08	8.09311685014722e-08	1.610425434534927e-08	-4.150834740159691e-08	6.905832666294511e-08	-2.278006209761421e-08
